<svg enable-background="new 0 0 24 24" height="512" viewBox="0 0 24 24" width="512" xmlns="http://www.w3.org/2000/svg"><path d="m20.5 24h-17c-.827 0-1.5-.673-1.5-1.5v-16c0-.276.224-.5.5-.5h19c.276 0 .5.224.5.5v16c0 .827-.673 1.5-1.5 1.5zm-17.5-17v15.5c0 .276.225.5.5.5h17c.275 0 .5-.224.5-.5v-15.5z"/><path d="m23.5 7h-23c-.161 0-.312-.077-.405-.208-.095-.13-.12-.298-.07-.45l2-6c.069-.204.26-.342.475-.342h19c.215 0 .406.138.475.342l2 6c.051.152.025.32-.069.451-.094.13-.245.207-.406.207zm-22.307-1h21.613l-1.666-5h-18.28z"/><path d="m18.5 24h-13c-.276 0-.5-.224-.5-.5v-12c0-.276.224-.5.5-.5h13c.276 0 .5.224.5.5v12c0 .276-.224.5-.5.5zm-12.5-1h12v-11h-12z"/><path d="m18.5 16h-13c-.276 0-.5-.224-.5-.5s.224-.5.5-.5h13c.276 0 .5.224.5.5s-.224.5-.5.5z"/><path d="m18.5 20h-13c-.276 0-.5-.224-.5-.5s.224-.5.5-.5h13c.276 0 .5.224.5.5s-.224.5-.5.5z"/></svg>