<svg height="512pt" viewBox="-48 0 512 512" width="512pt" xmlns="http://www.w3.org/2000/svg"><path fill="#fff" d="m301 335.546875v.789063c0 51.390624-41.808594 93.199218-93.199219 93.199218s-93.199219-41.808594-93.199219-93.199218v-.789063c-68.652343 23.980469-114.601562 88.542969-114.601562 161.453125 0 8.285156 6.714844 15 15 15h385.601562c8.28125 0 15-6.722656 15-15.007812 0-72.902344-45.949218-137.460938-114.601562-161.445313zm0 0"/><path fill="#fff" d="m144.601562 336.050781v.285157c0 34.847656 28.351563 63.199218 63.199219 63.199218 34.847657 0 63.199219-28.351562 63.199219-63.199218v-.390626c-19.355469 8.515626-40.734375 13.253907-63.199219 13.253907-22.117187 0-43.535156-4.535157-63.199219-13.148438zm0 0"/><path fill="#fff" d="m395.265625 175.667969v-32.132813c0-12.589844-4.902344-24.425781-13.796875-33.320312-4.6875-4.691406-10.203125-8.242188-16.203125-10.578125v119.949219c6.003906-2.332032 11.511719-5.902344 16.195313-10.589844 8.902343-8.902344 13.804687-20.738282 13.804687-33.328125zm0 0"/><path fill="#fff" d="m159.601562 64.265625c6.953126 0 12.953126 4.78125 14.574219 11.460937 7.816407 31.09375 35.652344 52.804688 67.726563 52.804688h93.363281v-33.214844c0-52.558594-42.757813-95.316406-95.316406-95.316406h-64.300781c-52.554688 0-95.316407 42.757812-95.316407 95.316406v6.8125l72.558594-36.277344c2.082031-1.042968 4.378906-1.585937 6.710937-1.585937zm0 0"/><path fill="#fff" d="m207.800781 319.199219c70.285157 0 127.464844-57.179688 127.464844-127.464844v-33.203125h-93.363281c-39.65625 0-74.785156-23.21875-90.78125-58.253906l-70.789063 35.394531v56.078125c0 34.042969 13.257813 66.046875 37.332031 90.121094 24.074219 24.070312 56.078126 37.328125 90.136719 37.328125zm0 0"/><path fill="#fff" d="m80.332031 319.199219c8.285157 0 15-6.714844 15-15 0-8.285157-6.714843-15-15-15-15.980469 0-30-23.019531-30-49.265625v-140.296875c-6 2.335937-11.515625 5.886719-16.199219 10.578125-8.898437 8.894531-13.800781 20.726562-13.800781 33.316406v96.402344c0 20.214844 5.644531 39.410156 15.894531 54.046875 11.222657 16.027343 27.296876 25.21875 44.105469 25.21875zm0 0"/></svg>
