<svg id="icons" enable-background="new 0 0 64 64" height="512" viewBox="0 0 64 64" width="512" xmlns="http://www.w3.org/2000/svg"><path d="m1 25.499h2.001v32.001c0 .553.447 1 1 1h4c.553 0 1-.447 1-1v-7.002h45.999v7.002c0 .553.447 1 1 1h4c.553 0 1-.447 1-1v-32.001h2c.553 0 1-.448 1-1v-5c0-.552-.447-1-1-1h-6.041c-.517-7.252-6.567-12.999-13.949-12.999-4.604 0-8.836 2.242-11.46 5.998h-28.55c-.553 0-1 .448-1 1v6.002h-1c-.553 0-1 .448-1 1v5c0 .551.447.999 1 .999zm6.001 31.001h-2v-31.001h2zm25.002-31.001v13.005c0 .553.447 1 1 1h21.997v5.994h-45.999v-19.999zm22.997 12.005h-20.997v-12.005h20.997zm-45.999 10.994v-1h45.999v1zm49.999 8.002h-2v-17.947c.001-.018.01-.031.01-.049v-13.005h1.99zm-15.99-49c6.279 0 11.438 4.85 11.949 10.999h-.999c-.508-5.598-5.223-10-10.951-10-.001 0-.001 0-.002 0-2.831 0-5.483 1.069-7.53 3h-1.388c2.259-2.523 5.467-3.999 8.921-3.999zm3.858 11c-.447-1.721-2-3-3.859-3-1.858 0-3.411 1.28-3.858 3h-1.139v-6.001c0-.151-.039-.291-.099-.419 1.486-1.026 3.245-1.58 5.094-1.58h.002c4.625 0 8.442 3.507 8.942 8zm-2.136 0h-3.446c.348-.595.985-1 1.723-1s1.376.404 1.723 1zm-30.025-5.001c-.347.595-.985 1-1.723 1h-8.984v-1zm-10.707 3h9c.006 0 .01-.003.016-.003 1.845-.015 3.383-1.287 3.828-2.998h19.168v2h-7.012c-.553 0-1 .448-1 1s.447 1 1 1h7.012v1h-32.012zm-2 4.001h.995.005 34.012c.002 0 .003-.001.005-.001h2.986c.002 0 .003.001.005.001s.003-.001.005-.001h5.993c.002 0 .003.001.005.001s.003-.001.005-.001h6.99c.002 0 .003.001.005.001s.003-.001.005-.001h2.989c.002 0 .003.001.005.001s.003-.001.005-.001h5.985v3h-2-3.99-.01-22.997-25.002-4-2.001z"/><path d="m37.003 29.5h8c.553 0 1-.448 1-1s-.447-1-1-1h-8c-.553 0-1 .448-1 1s.447 1 1 1z"/><path d="m37.003 32.5h8c.553 0 1-.448 1-1s-.447-1-1-1h-8c-.553 0-1 .448-1 1s.447 1 1 1z"/><path d="m37.003 35.504h8c.553 0 1-.447 1-1s-.447-1-1-1h-8c-.553 0-1 .447-1 1s.447 1 1 1z"/><path d="m49.002 35.504h3.001c.553 0 1-.447 1-1v-6.004c0-.552-.447-1-1-1h-3.001c-.553 0-1 .448-1 1v6.004c0 .553.447 1 1 1zm1-2v-1.002h1.001v1.002zm1.001-4.004v1.002h-1.001v-1.002z"/></svg>