<?xml version="1.0" encoding="iso-8859-1"?><!DOCTYPE svg PUBLIC "-//W3C//DTD SVG 1.1//EN" "http://www.w3.org/Graphics/SVG/1.1/DTD/svg11.dtd"><svg viewBox="0 0 512.01 512.01" xmlns="http://www.w3.org/2000/svg" xmlns:xlink="http://www.w3.org/1999/xlink"><style>:root>svg{display:none}:root>svg:target{display:block}</style><svg viewBox="0 0 440.965 440.965" id="about-01" xmlns="http://www.w3.org/2000/svg"><path d="M341.508 36.207A220.151 220.151 0 00220.587.154C98.892.271.235 98.832 0 220.527a215.892 215.892 0 0036.48 120.32L.853 426.18c-2.189 5.469.47 11.677 5.939 13.867a10.672 10.672 0 007.928 0l85.333-35.627c101.679 66.676 238.158 38.3 304.834-63.379s38.3-238.158-63.379-304.834zm-120.707 383.36h-.213v.213h-.001a200.961 200.961 0 01-113.28-36.053 10.673 10.673 0 00-5.973-1.92 10.47 10.47 0 00-4.053 0l-66.774 28.587 27.947-66.56a10.666 10.666 0 00-1.067-10.24 194.766 194.766 0 01-36.053-113.067c-.118-110.045 88.995-199.349 199.04-199.467 110.044-.118 199.349 88.995 199.467 199.04.118 110.045-88.995 199.349-199.04 199.467z"/><path d="M288.514 162.764c-4.633-33.756-33.865-58.657-67.927-57.864-36.795-.118-66.752 29.552-66.987 66.347 0 5.891 4.776 10.667 10.667 10.667s10.667-4.776 10.667-10.667c.471-25.209 21.289-45.263 46.499-44.792 25.21.471 45.263 21.289 44.792 46.499-.465 24.874-20.759 44.796-45.637 44.8-5.891 0-10.667 4.776-10.667 10.667v47.787c0 5.891 4.776 10.667 10.667 10.667s10.667-4.776 10.667-10.667v-37.973c36.652-5.029 62.288-38.819 57.259-75.471z"/><circle cx="219.697" cy="325.147" r="11.675"/></svg><svg viewBox="0 0 24 24" id="about-02" xmlns="http://www.w3.org/2000/svg"><path d="M20.5 24h-17c-.827 0-1.5-.673-1.5-1.5v-16a.5.5 0 01.5-.5h19a.5.5 0 01.5.5v16c0 .827-.673 1.5-1.5 1.5zM3 7v15.5a.5.5 0 00.5.5h17a.5.5 0 00.5-.5V7z"/><path d="M23.5 7H.5a.499.499 0 01-.475-.658l2-6A.502.502 0 012.5 0h19c.215 0 .406.138.475.342l2 6A.501.501 0 0123.5 7zM1.193 6h21.613L21.14 1H2.86zM18.5 24h-13a.5.5 0 01-.5-.5v-12a.5.5 0 01.5-.5h13a.5.5 0 01.5.5v12a.5.5 0 01-.5.5zM6 23h12V12H6z"/><path d="M18.5 16h-13a.5.5 0 010-1h13a.5.5 0 010 1zM18.5 20h-13a.5.5 0 010-1h13a.5.5 0 010 1z"/></svg><svg viewBox="0 0 512 512" id="about-03" xmlns="http://www.w3.org/2000/svg"><path d="M512 304c0-12.821-5.099-24.768-13.888-33.579 9.963-10.901 15.04-25.515 13.653-40.725-2.496-27.115-26.923-48.363-55.637-48.363H324.352c6.528-19.819 16.981-56.149 16.981-85.333 0-46.272-39.317-85.333-64-85.333-22.144 0-37.995 12.48-38.656 12.992A10.672 10.672 0 00234.666 32v72.341L173.205 237.44l-2.539 1.301v-4.075c0-5.888-4.779-10.667-10.667-10.667H53.333C23.915 224 0 247.915 0 277.333V448c0 29.419 23.915 53.333 53.333 53.333h64c23.061 0 42.773-14.72 50.197-35.264C185.28 475.2 209.173 480 224 480h195.819c23.232 0 43.563-15.659 48.341-37.248 2.453-11.136 1.024-22.336-3.84-32.064 15.744-7.915 26.347-24.192 26.347-42.688 0-7.552-1.728-14.784-4.992-21.312C501.419 338.752 512 322.496 512 304zm-44.992 26.325a10.719 10.719 0 00-8.917 7.232 10.688 10.688 0 002.816 11.136c5.419 5.099 8.427 11.968 8.427 19.307 0 13.461-10.176 24.768-23.637 26.325a10.719 10.719 0 00-8.917 7.232 10.688 10.688 0 002.816 11.136c7.019 6.613 9.835 15.893 7.723 25.451-2.624 11.904-14.187 20.523-27.499 20.523H224c-17.323 0-46.379-8.128-56.448-18.219-3.051-3.029-7.659-3.925-11.627-2.304a10.667 10.667 0 00-6.592 9.856c0 17.643-14.357 32-32 32h-64c-17.643 0-32-14.357-32-32V277.333c0-17.643 14.357-32 32-32h96V256c0 3.691 1.92 7.125 5.077 9.088a10.902 10.902 0 0010.368.448l21.333-10.667a10.65 10.65 0 004.907-5.056l64-138.667c.64-1.408.981-2.944.981-4.48V37.781c4.438-2.453 12.14-5.781 21.334-5.781C289.024 32 320 61.056 320 96c0 37.547-20.437 91.669-20.629 92.203a10.739 10.739 0 001.173 9.856 10.728 10.728 0 008.789 4.608h146.795c17.792 0 32.896 12.736 34.389 28.992 1.131 12.16-4.715 23.723-15.189 30.187-3.264 2.005-5.205 5.632-5.056 9.493s2.368 7.317 5.781 9.088c9.024 4.587 14.613 13.632 14.613 23.573.001 13.461-10.175 24.768-23.658 26.325z"/><path d="M160 245.333c-5.888 0-10.667 4.779-10.667 10.667v192c0 5.888 4.779 10.667 10.667 10.667s10.667-4.779 10.667-10.667V256c0-5.888-4.779-10.667-10.667-10.667z"/></svg><svg viewBox="0 0 461.103 461.103" id="about-04" xmlns="http://www.w3.org/2000/svg"><path d="M325.949 350.032a13.84 13.84 0 00-12.749-12.749c-7.622.581-13.329 7.23-12.749 14.851a13.84 13.84 0 0012.749 12.749c7.622-.58 13.329-7.23 12.749-14.851zM359.709 338.192a13.84 13.84 0 00-12.749-12.749c-7.622.581-13.329 7.23-12.749 14.851a13.84 13.84 0 0012.749 12.749c7.622-.58 13.329-7.23 12.749-14.851z"/><path d="M461.04 127.683v-.64a8.05 8.05 0 00-.64-1.28l-.48-.64-.96-1.04-.56-.48-1.04-.48h-.4L283.2 52.083a8.004 8.004 0 00-6 0l-173.36 69.84h-.4l-1.04.48-.56.48-.96 1.04-.48.64a8.05 8.05 0 00-.64 1.28v.64a7.968 7.968 0 000 2v64H8a8 8 0 000 16v1.04h90.8v27.36H67.68a8 8 0 000 16H98.8v27.36H25.04a8 8 0 000 16H98.8v33.44a8 8 0 004.96 7.36l173.44 72a8.005 8.005 0 002.72.56 8.005 8.005 0 002.72-.56l173.44-72a8 8 0 004.96-7.36v-200a7.968 7.968 0 000-2zm-180.88-59.36l65.76 26.32-149.6 63.28-68.4-28.48 152.24-61.12zm-8.24 321.44l-157.12-65.44v-28.16H148a8 8 0 000-16h-33.2v-27.36h76a8 8 0 000-16h-76v-27.28h16a8 8 0 000-16h-16v-52.16l61.12 25.28 96 40v183.12zm8.32-196.64l-63.2-26.48 149.76-63.52 65.52 26.4-95.44 40-56.64 23.6zm7.92 196.64v-183.12l45.04-18.72 112-46.72.4 183.12-157.44 65.44z"/></svg><svg viewBox="0 0 24 24" id="address" xmlns="http://www.w3.org/2000/svg"><path fill="#e36243" d="M12 0C7.038 0 3 4.066 3 9.065c0 7.103 8.154 14.437 8.501 14.745a.749.749 0 00.998.001C12.846 23.502 21 16.168 21 9.065 21 4.066 16.962 0 12 0zm0 14c-2.757 0-5-2.243-5-5s2.243-5 5-5 5 2.243 5 5-2.243 5-5 5z"/></svg><svg viewBox="-48 0 512 512" id="call-center" xmlns="http://www.w3.org/2000/svg"><path fill="#fff" d="M301 335.547v.789c0 51.39-41.809 93.2-93.2 93.2s-93.198-41.81-93.198-93.2v-.79A170.803 170.803 0 000 497c0 8.285 6.715 15 15 15h385.602c8.28 0 15-6.723 15-15.008 0-72.902-45.95-137.46-114.602-161.445zm0 0"/><path fill="#fff" d="M144.602 336.05v.286c0 34.848 28.351 63.2 63.199 63.2 34.847 0 63.199-28.352 63.199-63.2v-.39c-19.355 8.515-40.734 13.253-63.2 13.253-22.116 0-43.534-4.535-63.198-13.148zm0 0M395.266 175.668v-32.133c0-12.59-4.903-24.426-13.797-33.32a46.903 46.903 0 00-16.203-10.578v119.949a46.832 46.832 0 0016.195-10.59c8.902-8.902 13.805-20.738 13.805-33.328zm0 0M159.602 64.266c6.953 0 12.953 4.78 14.574 11.46a69.732 69.732 0 0067.726 52.805h93.364V95.316C335.266 42.758 292.508 0 239.949 0h-64.3c-52.555 0-95.317 42.758-95.317 95.316v6.813l72.559-36.277a14.98 14.98 0 016.71-1.586zm0 0"/><path fill="#fff" d="M207.8 319.2c70.286 0 127.466-57.18 127.466-127.466v-33.203h-93.364a99.683 99.683 0 01-90.78-58.254l-70.79 35.395v56.078c0 34.043 13.258 66.047 37.332 90.121 24.074 24.07 56.078 37.328 90.137 37.328zm0 0M80.332 319.2c8.285 0 15-6.716 15-15 0-8.286-6.715-15-15-15-15.98 0-30-23.02-30-49.266V99.637a46.852 46.852 0 00-16.2 10.578c-8.898 8.894-13.8 20.726-13.8 33.316v96.403c0 20.214 5.645 39.41 15.895 54.046 11.222 16.028 27.296 25.22 44.105 25.22zm0 0"/></svg><svg viewBox="0 0 405.272 405.272" id="check" xmlns="http://www.w3.org/2000/svg"><path d="M393.401 124.425L179.603 338.208c-15.832 15.835-41.514 15.835-57.361 0L11.878 227.836c-15.838-15.835-15.838-41.52 0-57.358 15.841-15.841 41.521-15.841 57.355-.006l81.698 81.699L336.037 67.064c15.841-15.841 41.523-15.829 57.358 0 15.835 15.838 15.835 41.514.006 57.361z" fill="#e36243"/></svg><svg viewBox="0 0 512 512" id="contract" xmlns="http://www.w3.org/2000/svg"><path fill="#fff" d="M389.513 87.422c0-12.012-4.688-23.32-13.184-31.816l-42.422-42.422C325.529 4.805 313.636 0 301.8 0h-2.578v90h90.292l-.001-2.578z"/><path fill="#fff" d="M273.937 309.537c2.871-8.716 7.881-16.831 14.414-23.408l101.562-101.153V120h-105.4c-8.291 0-14.513-6.709-14.513-15V0H45C20.186 0 0 20.186 0 45v422c0 24.814 20.186 45 45 45h299.513c24.814 0 45.4-20.186 45.4-45V355.049l-16.484 16.084c-6.679 6.621-14.501 11.44-23.32 14.385l-47.695 15.923-7.266.396c-12.012 0-23.379-5.845-30.439-15.63-7.002-9.741-8.906-22.368-5.098-33.779l14.326-42.891zM75 270h149.513c8.291 0 15 6.709 15 15s-6.709 15-15 15H75c-8.291 0-15-6.709-15-15s6.709-15 15-15zm-15-45c0-8.291 6.709-15 15-15h149.513c8.291 0 15 6.709 15 15s-6.709 15-15 15H75c-8.291 0-15-6.709-15-15zm0 120c0-8.291 6.709-15 15-15h149.513c8.291 0 15 6.709 15 15s-6.709 15-15 15H75c-8.291 0-15-6.709-15-15zm224.513 75c8.291 0 15 6.709 15 15s-6.708 15-15 15h-90c-8.291 0-15-6.709-15-15s6.709-15 15-15h90zM75 180c-8.291 0-15-6.709-15-15s6.709-15 15-15h209.513c8.291 0 15 6.709 15 15s-6.709 15-15 15H75z"/><path fill="#fff" d="M301.111 322.808l-13.05 39.151c-1.956 5.865 3.625 11.444 9.49 9.485l39.128-13.068-35.568-35.568zM417.609 199.307l-98.789 98.789 42.605 42.605c22.328-22.332 65.773-65.783 98.784-98.794l-42.6-42.6zM503.185 156.284c-5.273-5.303-13.037-8.335-21.27-8.335-8.233 0-15.996 3.032-21.299 8.35l-21.797 21.797 42.598 42.598 21.799-21.799c11.717-11.735 11.716-30.849-.031-42.611z"/><g fill="#fff"><path d="M503.215 198.896l.002-.002.086-.086a3.634 3.634 0 01-.088.088zM503.303 198.808l.133-.133-.133.133zM503.436 198.675c.097-.097.099-.099 0 0z"/></g></svg><svg viewBox="0 0 465.882 465.882" id="email" xmlns="http://www.w3.org/2000/svg"><path d="M232.941 0C104.499 0 0 104.499 0 232.941s104.499 232.941 232.941 232.941c40.961 0 81.239-10.777 116.499-31.179l-29.146-50.416c-26.416 15.284-56.629 23.36-87.353 23.36-96.338 0-174.706-78.368-174.706-174.706S136.603 58.235 232.941 58.235s174.706 78.368 174.706 174.706v25.364c0 19.052-12.241 32.871-29.118 32.871-16.052 0-29.118-13.066-29.118-29.118v-116.47H309.16c-20.484-17.895-46.948-29.118-76.219-29.118-64.221 0-116.471 52.25-116.471 116.471s52.25 116.471 116.471 116.471c30.582 0 58.232-12.094 79.036-31.442 16.036 19.057 39.754 31.442 66.552 31.442 48.98 0 87.353-40.022 87.353-91.107v-25.364C465.882 104.499 361.383 0 232.941 0zm0 291.176c-32.118 0-58.235-26.118-58.235-58.235 0-32.118 26.118-58.235 58.235-58.235 32.118 0 58.235 26.118 58.235 58.235 0 32.118-26.117 58.235-58.235 58.235z" fill="#e36243"/></svg><svg viewBox="0 0 511.985 511.985" id="intro-01" xmlns="http://www.w3.org/2000/svg"><path d="M486.577 280.582h-20v-59.51c0-17.268-12.387-31.699-28.746-34.885l16.626-16.613c5.745-5.74 8.909-13.374 8.909-21.493s-3.164-15.753-8.909-21.493L336.658 8.884c-11.855-11.846-31.143-11.846-42.998 0L116.871 185.532H50.969c-19.608 0-35.561 15.943-35.561 35.54v255.374c0 19.597 15.952 35.54 35.561 35.54h380.047c19.608 0 35.561-15.943 35.561-35.54v-59.51h20c5.522 0 10-4.477 10-10V290.582c0-5.523-4.478-10-10-10zM307.796 23.032c4.059-4.056 10.666-4.056 14.725 0L440.32 140.736c1.964 1.962 3.046 4.571 3.046 7.345s-1.082 5.383-3.046 7.345l-30.129 30.105h-35.049l12.758-12.748a10 10 0 000-14.148 14.825 14.825 0 01-4.376-10.555c0-3.987 1.554-7.736 4.376-10.556a10 10 0 000-14.148l-48.028-47.99c-3.903-3.902-10.231-3.902-14.137 0-5.83 5.825-15.319 5.827-21.149 0-3.904-3.901-10.232-3.901-14.137 0L180.216 185.532h-35.049zm59.911 141.656l-20.86 20.844H208.512l90.034-89.962c10.329 5.571 22.895 5.572 33.226 0l35.935 35.905c-2.733 5.041-4.184 10.712-4.184 16.607 0 5.894 1.45 11.565 4.184 16.606zM35.409 476.445V221.072c0-8.569 6.98-15.54 15.561-15.54h26.298v286.454H50.969c-8.58-.001-15.56-6.972-15.56-15.541zm411.168 0c0 8.569-6.98 15.54-15.561 15.54H97.267V205.532h333.749c8.58 0 15.561 6.971 15.561 15.54v59.51H370.77c-37.593 0-68.177 30.584-68.177 68.177 0 37.592 30.584 68.176 68.177 68.176h75.807zm30-79.51H370.77c-26.564 0-48.177-21.612-48.177-48.177s21.612-48.177 48.177-48.177h105.807z"/><path d="M344.202 348.759c0 18.321 14.914 33.227 33.245 33.227 18.332 0 33.246-14.906 33.246-33.227 0-18.322-14.914-33.227-33.246-33.227-18.331-.001-33.245 14.905-33.245 33.227zm33.245-13.228c7.304 0 13.246 5.934 13.246 13.227 0 7.294-5.942 13.227-13.246 13.227s-13.245-5.934-13.245-13.227 5.941-13.227 13.245-13.227z"/></svg><svg viewBox="0 0 464.883 464.883" id="intro-02" xmlns="http://www.w3.org/2000/svg"><path d="M396.409 212.577V95.33c0-27.866-22.819-50.882-50.687-50.882h-6.313V36.5c0-19.882-16.118-36-36-36s-36 16.118-36 36v7.948h-132V36.5c0-20.158-16.342-36.5-36.5-36.5s-36.5 16.342-36.5 36.5v7.948h-5.455c-27.867 0-50.545 23.016-50.545 50.882v269.224c0 27.867 22.678 50.894 50.545 50.894h158.594a137.854 137.854 0 00105.561 49.435c75.7 0 137.365-61.677 137.365-137.379.002-47.981-25.065-90.373-62.065-114.927zm-109-176.077c-.154-8.71 6.781-15.896 15.491-16.05.14-.002.28-.003.42-.002 8.792-.093 15.996 6.959 16.089 15.752a15 15 0 010 .3v38.948h-32V36.5zm-205 0c.095-8.961 7.437-16.148 16.398-16.053a.69.69 0 01.046.001c8.994 0 16.556 7.059 16.556 16.052v38.948h-33V36.5zm-56 58.83c0-16.839 13.706-30.882 30.545-30.882h5.455v21.416c0 5.522 4.612 9.584 10.135 9.584h52.62c5.522 0 10.245-4.062 10.245-9.584V64.448h132v21.416a9.32 9.32 0 009.6 9.584h52.62a9.466 9.466 0 009.78-9.584V64.448h6.313c16.953.171 30.623 13.929 30.687 30.882v32.118h-350V95.33zm30.545 300.118c-16.839 0-30.545-14.055-30.545-30.894V147.448h350v54.254a137.238 137.238 0 00-55.224-11.578c-75.7 0-137.327 61.767-137.327 137.469a137.131 137.131 0 0017.839 67.855H56.954zm264.155 49.257c-64.778 0-117.291-52.513-117.291-117.291 0-64.778 52.513-117.291 117.291-117.291S438.4 262.636 438.4 327.414v.001c-.073 64.747-52.543 117.217-117.291 117.29z"/><path d="M368.219 327.448h-43.81v-60.17c0-5.523-4.477-10-10-10s-10 4.477-10 10v70.16a10.17 10.17 0 0010.188 10.01h53.622c5.523 0 10-4.477 10-10s-4.477-10-10-10z"/></svg><svg viewBox="0 0 128 128" id="intro-03" xmlns="http://www.w3.org/2000/svg"><path d="M109 17.25H70.82A1.751 1.751 0 0069.07 19v90a1.751 1.751 0 001.75 1.75H109a1.75 1.75 0 001.75-1.75V19a1.75 1.75 0 00-1.75-1.75zM91.471 32.726q-.327 1.578-.644 3.16a358.07 358.07 0 01-1.3 6.243c-2.493 12.044-5.071 24.5-5.215 37.111-.1 9.119 1.057 18.144 2.529 28.01h-4.984a43.658 43.658 0 00.084-4.978 212.667 212.667 0 00-2.334-26.027 121.2 121.2 0 00-4.115-18.577 32.087 32.087 0 00-2.922-6.85v-9.1A10.256 10.256 0 0077.2 43a6.565 6.565 0 002.578-.512c3.18-1.342 4.359-4.677 5.159-8.08l3.215-13.658h5.8zM72.57 20.75h11.987l-3.023 12.856c-.589 2.5-1.373 4.922-3.113 5.656-1.611.681-3.729-.278-5.222-1.2-.214-.132-.423-.27-.629-.413zm0 86.5V60.074a122.287 122.287 0 013.578 16.7 209.017 209.017 0 012.294 25.6 38.354 38.354 0 01-.093 4.881zm15.239-27.97c.14-12.275 2.683-24.56 5.137-36.417.464-2.088.888-4.186 1.312-6.284q.318-1.574.64-3.144l2.626-12.685h9.725V29c-.1.15-.211.3-.307.457-2.5 4.125-3.314 8.975-4.033 13.253L95.6 86.22c-1.024 6.087-2.082 12.381-1.5 18.762.069.754.169 1.511.3 2.268h-4.026c-1.486-9.92-2.668-18.943-2.565-27.97zm19.44 27.97h-9.306a27.806 27.806 0 01-.362-2.586c-.541-5.931.479-12 1.465-17.864l7.314-43.508c.267-1.588.538-3.2.889-4.775zM57.18 17.25H19A1.751 1.751 0 0017.25 19v90a1.751 1.751 0 001.75 1.75h38.18a1.751 1.751 0 001.75-1.75V19a1.751 1.751 0 00-1.75-1.75zm-1.75 53.44c-.21.153-.416.312-.631.458-1.425.975-2.969 1.888-4.463 2.771a52.4 52.4 0 00-7.285 4.881c-5.016 4.233-8.65 10.518-10.508 18.176a63.115 63.115 0 00-1.521 10.276h-4.588c2.491-8.117 4.511-16.515 6.306-24 .74-3.087 1.66-6.927.525-10.6a20.027 20.027 0 00-3.014-5.468l-.033-.045c-1.282-1.71-2.526-3.521-3.73-5.273q-.925-1.35-1.861-2.69l-3.877-5.52V29.634L25.6 46.88c.861 3.065 3.736 7.843 6.273 12.058 1.163 1.933 2.262 3.759 2.907 5.008 1.051 2.036 3.266 5.541 6.288 6.135a4.455 4.455 0 00.86.086 4.317 4.317 0 002.838-1.093c1.789-1.526 2.713-4.717 3.608-7.8a23.529 23.529 0 011.474-4.228c1.658-2.86 3.242-8.031 4.774-13.032.269-.878.54-1.757.811-2.628zm-6.051-49.94c-.5 1.083-.984 2.063-1.461 3.022a32.14 32.14 0 00-3.97 12.713l-.058.626c-.727 8.177-2.426 10.672-3.812 11.256-1.978-1.119-7.193-10.547-5.058-19.385l.329-1.34c.516-2.087 1.181-4.781 1.555-6.892zm-16.037 0c-.371 1.921-.96 4.306-1.391 6.052l-.333 1.358c-2.133 8.827 1.95 18.811 5.588 22.338a4.23 4.23 0 002.851 1.424 2.67 2.67 0 00.7-.095c5.468-1.5 6.273-10.544 6.616-14.406l.054-.588a28.9 28.9 0 013.623-11.5C51.712 24 52.451 22.5 53.2 20.75h2.23v10.485a84.1 84.1 0 00-4.157 11.751c-1.475 4.812-3 9.788-4.456 12.3a24.578 24.578 0 00-1.808 5.014c-.645 2.224-1.527 5.269-2.517 6.114a.807.807 0 01-.751.236c-.9-.178-2.446-1.578-3.854-4.306-.7-1.351-1.773-3.138-3.018-5.208-2.3-3.826-5.168-8.589-5.9-11.2L21.888 20.75zm-12.592 86.5V59.742l1.013 1.442c.618.881 1.229 1.77 1.841 2.66 1.218 1.774 2.478 3.608 3.8 5.369a17.007 17.007 0 012.519 4.47c.852 2.755.089 5.939-.585 8.748-1.859 7.754-3.954 16.5-6.559 24.819zm15.194-9.45c1.173-4.833 3.749-11.589 9.364-16.326a49.035 49.035 0 016.809-4.541 119.02 119.02 0 003.313-2.008V91.6a23.743 23.743 0 00-5.544 2.408 21.937 21.937 0 00-9.853 13.241h-5.5a59.146 59.146 0 011.411-9.449zm19.486 9.45H43.678A18.4 18.4 0 0151.711 97a19.208 19.208 0 013.719-1.73z"/></svg><svg viewBox="0 0 512 512" id="intro-04" xmlns="http://www.w3.org/2000/svg"><path d="M256 82.637c-95.593 0-173.363 77.77-173.363 173.363S160.407 429.363 256 429.363 429.363 351.593 429.363 256 351.593 82.637 256 82.637zm0 326.726c-84.565 0-153.363-68.798-153.363-153.363S171.435 102.637 256 102.637 409.363 171.435 409.363 256 340.564 409.363 256 409.363z"/><path d="M498.337 290.378C504.741 280.422 512 269.138 512 256s-7.259-24.422-13.663-34.378c-4.287-6.664-8.336-12.958-9.635-18.665-1.386-6.087-.459-13.74.522-21.841 1.467-12.119 2.985-24.65-2.533-36.07-5.615-11.621-16.971-18.584-26.991-24.728-6.866-4.209-13.351-8.186-17.123-12.904-3.812-4.767-6.274-11.998-8.88-19.653-3.772-11.079-8.046-23.635-18.077-31.633-9.979-7.956-23.151-9.336-34.774-10.554-8.088-.847-15.728-1.647-21.29-4.327-5.372-2.588-10.659-7.975-16.256-13.678-8.265-8.422-17.633-17.968-30.34-20.853-12.233-2.776-24.047 1.462-35.472 5.563C269.719 15.066 262.38 17.7 256 17.7s-13.719-2.634-21.488-5.422c-11.424-4.1-23.237-8.339-35.472-5.563-12.707 2.884-22.075 12.43-30.34 20.853-5.597 5.703-10.883 11.09-16.255 13.678-5.562 2.679-13.201 3.479-21.29 4.327-11.623 1.218-24.796 2.598-34.774 10.554-10.031 7.998-14.306 20.554-18.077 31.632-2.606 7.656-5.068 14.887-8.88 19.654-3.772 4.718-10.258 8.694-17.124 12.904-10.019 6.144-21.375 13.107-26.99 24.728-5.518 11.421-4.001 23.952-2.534 36.071.981 8.102 1.908 15.754.522 21.841-1.299 5.707-5.348 12.001-9.635 18.665C7.259 231.578 0 242.862 0 256s7.259 24.422 13.663 34.377c4.287 6.665 8.336 12.959 9.635 18.666 1.386 6.087.459 13.739-.522 21.841-1.467 12.119-2.985 24.65 2.533 36.07 5.615 11.621 16.971 18.585 26.991 24.728 6.866 4.21 13.351 8.186 17.123 12.904 3.812 4.767 6.274 11.998 8.88 19.653 3.771 11.079 8.046 23.635 18.077 31.633 9.979 7.956 23.152 9.336 34.774 10.554 8.088.847 15.728 1.647 21.29 4.327 5.372 2.588 10.659 7.975 16.256 13.678 8.265 8.422 17.633 17.968 30.34 20.853 12.236 2.777 24.048-1.461 35.472-5.563 7.77-2.788 15.108-5.422 21.488-5.422s13.719 2.634 21.488 5.422c8.874 3.185 17.98 6.453 27.338 6.453 2.69 0 5.402-.27 8.134-.89 12.707-2.884 22.075-12.43 30.34-20.852 5.597-5.704 10.883-11.09 16.255-13.678 5.562-2.68 13.202-3.48 21.29-4.327 11.623-1.218 24.795-2.598 34.774-10.554 10.031-7.998 14.305-20.554 18.077-31.632 2.606-7.656 5.068-14.887 8.88-19.654 3.772-4.718 10.258-8.694 17.124-12.904 10.019-6.144 21.375-13.107 26.99-24.728 5.518-11.421 4.001-23.952 2.534-36.071-.981-8.102-1.908-15.754-.522-21.841 1.298-5.707 5.348-12.001 9.635-18.665zm-16.82-10.821c-5.033 7.824-10.237 15.914-12.316 25.046-2.158 9.478-.976 19.243.168 28.685 1.172 9.682 2.279 18.827-.687 24.966-3.063 6.338-11.016 11.215-19.437 16.378-8.029 4.923-16.332 10.014-22.289 17.463-5.998 7.5-9.147 16.751-12.193 25.699-3.167 9.304-6.16 18.092-11.613 22.44-5.407 4.312-14.628 5.277-24.389 6.3-9.434.988-19.189 2.01-27.886 6.2-8.52 4.104-15.297 11.01-21.851 17.688-6.951 7.083-13.517 13.773-20.492 15.357-6.544 1.483-15.164-1.608-24.29-4.883-9.038-3.244-18.384-6.598-28.244-6.598s-19.206 3.354-28.244 6.598c-9.126 3.275-17.746 6.368-24.29 4.883-6.975-1.584-13.541-8.274-20.492-15.357-6.554-6.678-13.331-13.584-21.851-17.688-8.697-4.19-18.452-5.211-27.886-6.2-9.762-1.022-18.982-1.989-24.389-6.3-5.453-4.348-8.445-13.136-11.612-22.44-3.046-8.947-6.196-18.199-12.193-25.699-5.957-7.449-14.259-12.539-22.289-17.463-8.421-5.163-16.375-10.039-19.437-16.378-2.966-6.139-1.859-15.284-.687-24.966 1.144-9.442 2.326-19.206.168-28.685-2.079-9.132-7.283-17.223-12.316-25.047C25.092 271.177 20 263.26 20 256c0-7.261 5.092-15.177 10.483-23.558 5.033-7.824 10.237-15.914 12.316-25.046 2.158-9.479.976-19.243-.168-28.685-1.172-9.682-2.279-18.827.687-24.966 3.063-6.338 11.016-11.215 19.437-16.378 8.029-4.923 16.332-10.014 22.289-17.463 5.997-7.499 9.147-16.752 12.193-25.699 3.168-9.304 6.16-18.092 11.613-22.44 5.408-4.312 14.628-5.277 24.39-6.3 9.434-.988 19.188-2.01 27.886-6.199 8.52-4.104 15.296-11.01 21.85-17.688 6.951-7.083 13.517-13.773 20.492-15.357 6.542-1.484 15.164 1.608 24.29 4.883C236.794 34.346 246.14 37.7 256 37.7s19.206-3.354 28.244-6.598c9.126-3.274 17.744-6.367 24.29-4.883 6.975 1.583 13.541 8.274 20.492 15.357 6.554 6.678 13.331 13.584 21.851 17.688 8.697 4.189 18.452 5.211 27.886 6.2 9.762 1.023 18.982 1.989 24.39 6.3 5.453 4.348 8.445 13.136 11.612 22.441 3.046 8.947 6.196 18.199 12.193 25.699 5.957 7.449 14.259 12.54 22.289 17.463 8.421 5.163 16.375 10.039 19.437 16.378 2.966 6.139 1.859 15.284.687 24.966-1.144 9.442-2.326 19.207-.168 28.685 2.079 9.132 7.283 17.222 12.316 25.046C486.908 240.823 492 248.739 492 256c0 7.26-5.092 15.177-10.483 23.557z"/><path d="M351.317 225.643l-54.782-16.148-32.287-47.11a10 10 0 00-16.497 0l-32.287 47.11-54.782 16.148a10 10 0 00-5.098 15.689l34.828 45.264-1.57 57.09a10 10 0 0013.347 9.697L256 334.249l53.811 19.135a9.996 9.996 0 009.229-1.332 10 10 0 004.118-8.365l-1.57-57.09 34.828-45.264a10.001 10.001 0 00-5.099-15.69zm-47.749 51.576a10 10 0 00-2.071 6.373l1.267 46.06-43.414-15.438a10.005 10.005 0 00-6.702 0l-43.414 15.438 1.267-46.06a10 10 0 00-2.071-6.373l-28.098-36.518 44.197-13.028a10.003 10.003 0 005.421-3.938L256 185.726l26.048 38.008a9.998 9.998 0 005.421 3.938l44.197 13.028z"/></svg><svg viewBox="0 0 24 24" data-name="Layer 2" id="left" xmlns="http://www.w3.org/2000/svg"><path fill="#fff" d="M22.707 11.293l-7-7a1 1 0 00-1.414 1.414L19.586 11H2a1 1 0 000 2h17.586l-5.293 5.293a1 1 0 101.414 1.414l7-7a1 1 0 000-1.414z"/></svg><svg viewBox="0 0 6.35 6.35" id="next" xmlns="http://www.w3.org/2000/svg"><path d="M2.258 1.315a.265.265 0 00-.174.469L3.703 3.17l-1.62 1.386a.265.265 0 10.345.4L4.28 3.373a.265.265 0 000-.403L2.428 1.382a.265.265 0 00-.17-.067z" fill="#fff"/></svg><svg viewBox="0 0 6.35 6.35" id="next-dark" xmlns="http://www.w3.org/2000/svg"><path d="M2.258 1.315a.265.265 0 00-.174.469L3.703 3.17l-1.62 1.386a.265.265 0 10.345.4L4.28 3.373a.265.265 0 000-.403L2.428 1.382a.265.265 0 00-.17-.067z" fill="#333"/></svg><svg viewBox="0 0 512.012 512.012" id="review" xmlns="http://www.w3.org/2000/svg"><g fill="#ecebec"><path d="M333.201 115.038c-28.905-59.021-89.37-98.042-157.193-98.042-97.047 0-176 78.505-176 175 0 26.224 5.63 51.359 16.742 74.794L.299 349.055c-2.094 10.472 7.144 19.728 17.618 17.656l83.279-16.465a172.546 172.546 0 0034.732 12.151c-26.717-126.541 69.199-245.321 197.273-247.359z"/><path d="M495.266 394.79a174.485 174.485 0 007.511-18.514h-.549c37.448-109.917-41.305-225.441-157.567-231.066l-.005-.018c-100.036-4.61-183.148 75.486-183.148 174.804 0 96.414 78.361 174.857 174.743 174.997 26.143-.035 51.201-5.663 74.568-16.747 91.207 18.032 84.094 16.75 86.189 16.75 9.479 0 16.56-8.686 14.709-17.941z"/></g></svg><svg viewBox="0 0 24 24" data-name="Layer 2" id="right" xmlns="http://www.w3.org/2000/svg"><path fill="#fff" d="M22.707 11.293l-7-7a1 1 0 00-1.414 1.414L19.586 11H2a1 1 0 000 2h17.586l-5.293 5.293a1 1 0 101.414 1.414l7-7a1 1 0 000-1.414z"/></svg><svg viewBox="0 0 512.009 512.009" id="scheme-01" xmlns="http://www.w3.org/2000/svg"><path d="M59.741 151.599H238.81c5.523 0 10-4.478 10-10V62.012c0-5.522-4.477-10-10-10H59.741c-5.523 0-10 4.478-10 10v79.587c0 5.523 4.477 10 10 10zm10-79.587H228.81v59.587H69.741zM59.741 201.34h248.707c5.523 0 10-4.477 10-10 0-5.522-4.477-10-10-10H59.741c-5.523 0-10 4.478-10 10 0 5.523 4.477 10 10 10zM59.741 251.083h248.707c5.523 0 10-4.477 10-10 0-5.522-4.477-10-10-10H59.741c-5.523 0-10 4.478-10 10s4.477 10 10 10zM59.741 300.823h109.431c5.523 0 10-4.478 10-10s-4.477-10-10-10H59.741c-5.523 0-10 4.478-10 10s4.477 10 10 10z"/><path d="M500.33 158.63c-15.533-15.533-40.739-15.608-56.358.01l-75.782 75.978V81.91c0-2.746-1.152-5.312-2.929-7.071-16.13-16.128-69.221-69.229-69.794-69.78a9.983 9.983 0 00-6.915-2.787H10c-5.523 0-10 4.477-10 10v487.465c0 5.522 4.477 10 10 10h348.189c5.523 0 10-4.478 10-10V347.461L500.33 214.98c15.571-15.57 15.573-40.774 0-56.35zM264.485 423.113l-33.496 5.015 5.388-33.037 172.53-172.977 28.065 28.066c-5.428 5.444-161.522 161.94-172.487 172.933zm34.067-386.698l35.495 35.495h-35.495zm49.637 453.322H20V22.272h258.552V81.91c0 5.522 4.477 10 10 10h59.638v162.76l-75.7 75.895H59.741c-5.523 0-10 4.478-10 10 0 5.523 4.477 10 10 10h192.8l-29.664 29.741H59.741c-5.523 0-10 4.478-10 10s4.477 10 10 10h155.521l-4.851 29.741H59.741c-5.523 0-10 4.478-10 10s4.477 10 10 10c170.958 0 159.321.044 160.376-.079.843-.107 21.768-3.254 50.596-7.565a9.996 9.996 0 005.599-2.828l71.876-72.062v122.224zm137.99-288.89l-35.081 35.172-28.065-28.065 35.09-35.181c7.752-7.753 20.308-7.757 28.064-.002 7.666 7.666 7.637 20.43-.008 28.076z"/></svg><svg viewBox="0 0 512 512" id="scheme-02" xmlns="http://www.w3.org/2000/svg"><path d="M230.699 150.571v-10.04c0-5.522-4.477-10-10-10s-10 4.478-10 10v10.04c0 5.522 4.477 10 10 10s10-4.477 10-10zM291.3 160.571c5.523 0 10-4.478 10-10v-10.04c0-5.522-4.477-10-10-10s-10 4.478-10 10v10.04c0 5.523 4.477 10 10 10z"/><path d="M342.198 291.725c-9.516-.882-11.303-.415-32.706-.545l-6.824-32.283a96.33 96.33 0 0031.357-28.039h.544c31.508 0 57.142-25.6 57.142-57.066v-73.424c0-5.522-4.477-10-10-10H351.73V60.205c0-22.124-18.06-40.123-40.257-40.123-11.431 0-21.755 4.78-29.09 12.431C271.072 13.092 250.038 0 225.99 0h-85.979c-5.523 0-10 4.477-10 10v25.103c0 23.104 12.087 43.427 30.258 55.017v.342c-40.908-.128-27.023-.094-29.981-.094-5.521 0-10 4.479-10 10v60.245c0 5.511 4.458 9.982 9.969 10l30.013.094v4.967c0 36.04 19.956 67.044 49.049 83.282l-6.812 32.225c-22.851.14-21.563-.353-32.632.537C117.742 296.966 69.5 339.607 69.5 391.55V502c0 5.522 4.477 10 10 10h353c5.522 0 10-4.478 10-10V391.55c0-52.12-48.443-94.574-100.302-99.825zM256 386.421l-18.992-21.667L256 349.24l18.992 15.514zm-48.874-75.241l32.407 25.687-34.384 28.086-20.2-53.772h22.177zm64.543 25.035l33.08-25.035h22.302l-20.2 53.772zm73.953-127.033c7.473-19.763 5.884-35.648 6.108-38.569h19.982v3.179c0 16.599-10.99 30.684-26.09 35.39zm26.09-98.815v40.245H351.73v-40.245zm-80.497-50.163c0-11.096 9.087-20.123 20.258-20.123 11.17 0 20.257 9.027 20.257 20.123v20.122h-40.515V65.225zM150.011 20h75.979c24.937 0 45.225 20.288 45.225 45.225v15.102h-75.979c-24.883 0-45.224-20.26-45.224-45.224V20zm-9.723 130.644v-40.245l19.981.062v40.245zm39.981 25.029v-77.1a65.123 65.123 0 0014.966 1.753H331.73v75.347a74.56 74.56 0 01-8.793 35.185H256c-5.523 0-10 4.478-10 10s4.477 10 10 10h51.489c-22.773 21.048-55.496 25.785-82.785 13.448l-.015-.007c-25.947-11.739-44.42-37.798-44.42-68.626zm103.646 91.209l6.375 30.159-35.198 26.637-33.415-26.484 6.399-30.274c17.58 5.314 37.186 5.636 55.839-.038zM89.5 391.55c0-37.838 34.644-71.312 74.665-78.824l27.16 72.301c2.403 6.398 10.39 8.551 15.688 4.229l14.496-11.841 23.32 26.604L218.392 492h-63.019v-50.245c0-5.523-4.477-10-10-10s-10 4.477-10 10V492H89.5zM256 436.342L272.724 492h-33.448zM422.5 492h-45.873v-50.245c0-5.523-4.477-10-10-10s-10 4.477-10 10V492h-63.019l-26.437-87.981 23.32-26.604 14.496 11.841c5.298 4.325 13.287 2.163 15.688-4.229l27.16-72.301c40.071 7.525 74.665 41.033 74.665 78.824z"/></svg><svg viewBox="0 0 512 512" id="scheme-03" xmlns="http://www.w3.org/2000/svg"><path d="M110.408 260.979c16.587 0 30.082-13.494 30.082-30.081s-13.495-30.082-30.082-30.082-30.082 13.495-30.082 30.082 13.495 30.081 30.082 30.081zm0-40.163c5.56 0 10.082 4.522 10.082 10.082 0 5.559-4.522 10.081-10.082 10.081s-10.082-4.523-10.082-10.081c0-5.559 4.523-10.082 10.082-10.082zM351.388 260.979c16.587 0 30.082-13.494 30.082-30.081s-13.495-30.082-30.082-30.082-30.081 13.495-30.081 30.082 13.494 30.081 30.081 30.081zm0-40.163c5.56 0 10.082 4.522 10.082 10.082 0 5.559-4.522 10.081-10.082 10.081-5.559 0-10.081-4.523-10.081-10.081 0-5.559 4.522-10.082 10.081-10.082zM230.898 301.143c38.732 0 70.244-31.512 70.244-70.244 0-38.733-31.512-70.245-70.244-70.245-38.733 0-70.245 31.512-70.245 70.245 0 38.732 31.512 70.244 70.245 70.244zm0-120.49c27.705 0 50.244 22.54 50.244 50.245s-22.539 50.244-50.244 50.244-50.245-22.539-50.245-50.244 22.54-50.245 50.245-50.245z"/><path d="M50.163 311.306c11.028 0 20 8.972 20 20 0 5.522 4.478 10 10 10h301.47c5.522 0 10-4.478 10-10 0-11.028 8.972-20 20-20 5.522 0 10-4.478 10-10V160.49c0-5.522-4.478-10-10-10-11.028 0-20-8.972-20-20 0-5.522-4.478-10-10-10H80.163c-5.522 0-10 4.478-10 10 0 11.028-8.972 20-20 20-5.523 0-10 4.478-10 10v140.815c0 5.523 4.478 10.001 10 10.001zm10-142.081c14.036-3.626 25.109-14.698 28.734-28.734h284.001c3.625 14.036 14.698 25.108 28.734 28.734v123.347c-14.036 3.625-25.109 14.698-28.734 28.734H88.897c-3.625-14.036-14.698-25.109-28.734-28.734z"/><path d="M502 110.449h-40.204V90.326c0-5.522-4.478-10-10-10H10c-5.523 0-10 4.478-10 10V371.47c0 5.522 4.477 10 10 10h20.122v40.204c0 5.522 4.478 10 10 10H502c5.522 0 10-4.478 10-10V120.449c0-5.522-4.478-10-10-10zM20 100.326h421.796v261.143H20zm472 311.348H50.122V381.47h401.674c5.522 0 10-4.478 10-10V130.45H492z"/></svg><svg viewBox="0 0 512 512" id="scheme-04" xmlns="http://www.w3.org/2000/svg"><path d="M256 211.554c44.428 0 80.572-36.145 80.572-80.573S300.427 50.409 256 50.409s-80.572 36.145-80.572 80.572c0 44.428 36.144 80.573 80.572 80.573zm0-141.145c33.399 0 60.572 27.172 60.572 60.572S289.399 191.554 256 191.554s-60.572-27.173-60.572-60.573S222.601 70.409 256 70.409z"/><path d="M471.755 240.856H361.56c24.214-33.212 36.147-66.765 35.501-99.986-.73-37.747-15.58-73.09-41.812-99.521C328.784 14.685 293.537 0 256 0s-72.784 14.685-99.249 41.35c-26.232 26.43-41.082 61.774-41.813 99.519-.646 33.223 11.287 66.776 35.501 99.987H40.245C18.054 240.856 0 258.911 0 281.102v190.652C0 493.946 18.054 512 40.245 512h431.51C493.946 512 512 493.946 512 471.754V281.102c0-22.191-18.054-40.246-40.245-40.246zM492 281.102v90.408h-40.245V260.856h20c11.163 0 20.245 9.083 20.245 20.246zM134.935 141.257C136.251 73.263 189.43 20 256 20s119.749 53.263 121.065 121.258c.661 34.033-14.371 69.08-44.682 104.169l-.001.001c-28.896 33.46-63.606 57.171-76.387 65.346-12.77-8.159-47.416-31.807-76.38-65.347-30.309-35.089-45.342-70.137-44.68-104.17zm-94.69 119.599H166.54c37.817 42.884 82.504 69.199 84.421 70.317a10.002 10.002 0 0010.078 0c1.917-1.118 46.604-27.433 84.421-70.317h36.091V371.51H20v-90.408c0-11.163 9.082-20.246 20.245-20.246zM20 471.754v-30.04h100.49V492H40.245C29.082 492 20 482.918 20 471.754zM140.49 492v-60.286c0-5.523-4.478-10-10-10H20V391.51h371.551c5.522 0 10-4.477 10-10V260.979h30.204V381.51c0 5.523 4.477 10 10 10H492v30.204H180.694c-5.522 0-10 4.477-10 10V492zm331.265 0H190.694v-50.286H492v30.04c0 11.164-9.082 20.246-20.245 20.246z"/></svg><svg viewBox="0 0 512.002 512.002" id="scheme-05" xmlns="http://www.w3.org/2000/svg"><path d="M502.903 96.829c-6.634-7.842-15.924-12.632-26.161-13.487L116.185 53.236c-10.238-.855-20.192 2.328-28.035 8.961-7.811 6.607-12.594 15.85-13.476 26.037L67.42 156.29H38.455C17.251 156.29 0 173.541 0 194.745v225.702c0 21.204 17.251 38.455 38.455 38.455h361.813c21.205 0 38.456-17.251 38.456-38.455v-36.613l12.839 1.072c1.083.09 2.16.135 3.228.135 19.768 0 36.62-15.209 38.294-35.257l18.781-224.919c.854-10.237-2.329-20.193-8.963-28.036zM38.455 176.29h361.813c10.176 0 18.456 8.279 18.456 18.455v20.566H20v-20.566c0-10.176 8.279-18.455 18.455-18.455zM20 235.311h398.724V276.8H20zm380.268 203.591H38.455c-10.176 0-18.455-8.279-18.455-18.455V296.8h398.724v123.647c0 10.176-8.28 18.455-18.456 18.455zM491.935 123.2l-18.781 224.919c-.847 10.141-9.788 17.706-19.927 16.856l-14.503-1.211V194.745c0-21.204-17.251-38.455-38.456-38.455H87.534l7.039-66.04c.008-.076.015-.151.021-.228.847-10.141 9.783-17.705 19.927-16.855l360.558 30.106c4.913.41 9.372 2.709 12.555 6.473s4.711 8.541 4.301 13.454z"/><path d="M376.873 326.532h-96.242c-5.523 0-10 4.477-10 10v62.789c0 5.523 4.477 10 10 10h96.242c5.523 0 10-4.477 10-10v-62.789c0-5.523-4.477-10-10-10zm-10 62.789h-76.242v-42.789h76.242z"/></svg><svg viewBox="0 0 512.005 512.005" id="search" xmlns="http://www.w3.org/2000/svg"><path d="M505.749 475.587l-145.6-145.6c28.203-34.837 45.184-79.104 45.184-127.317C405.333 90.926 314.41.003 202.666.003S0 90.925 0 202.669s90.923 202.667 202.667 202.667c48.213 0 92.48-16.981 127.317-45.184l145.6 145.6c4.16 4.16 9.621 6.251 15.083 6.251s10.923-2.091 15.083-6.251c8.341-8.341 8.341-21.824-.001-30.165zM202.667 362.669c-88.235 0-160-71.765-160-160s71.765-160 160-160 160 71.765 160 160-71.766 160-160 160z" fill="#FFF"/></svg><svg viewBox="0 0 512.055 512.055" id="services-01" xmlns="http://www.w3.org/2000/svg"><path d="M119.522 435.231c0-23.564-19.103-42.667-42.667-42.667s-42.667 19.103-42.667 42.667 19.103 42.667 42.667 42.667c23.553-.029 42.639-19.115 42.667-42.667zm-68.267 0c0-14.138 11.462-25.6 25.6-25.6s25.6 11.462 25.6 25.6-11.462 25.6-25.6 25.6a25.6 25.6 0 01-25.6-25.6zM162.188 256.031c-23.564 0-42.667 19.103-42.667 42.667s19.103 42.667 42.667 42.667 42.667-19.103 42.667-42.667c-.028-23.553-19.114-42.639-42.667-42.667zm0 68.267c-14.138 0-25.6-11.462-25.6-25.6s11.462-25.6 25.6-25.6c14.139 0 25.6 11.462 25.6 25.6s-11.461 25.6-25.6 25.6zM247.522 477.898c23.564 0 42.667-19.103 42.667-42.667s-19.103-42.667-42.667-42.667-42.667 19.103-42.667 42.667c.028 23.552 19.114 42.638 42.667 42.667zm0-68.267c14.138 0 25.6 11.462 25.6 25.6s-11.462 25.6-25.6 25.6-25.6-11.462-25.6-25.6c0-14.139 11.461-25.6 25.6-25.6z"/><path d="M435.255 358.431h-37.163c25.363-20.417 35.082-54.615 24.25-85.32s-39.861-51.232-72.42-51.214H162.188c-32.56-.019-61.587 20.509-72.42 51.214s-1.113 64.903 24.25 85.32H76.855c-42.415 0-76.8 34.385-76.8 76.8s34.385 76.8 76.8 76.8h358.4c42.415 0 76.8-34.385 76.8-76.8s-34.384-76.8-76.8-76.8zm-85.333-119.467a59.502 59.502 0 0141.719 17.067h-84.386a8.533 8.533 0 000 17.066h96.555a58.98 58.98 0 010 51.2h-45.355a8.533 8.533 0 000 17.066h33.186a59.504 59.504 0 01-41.719 17.067H210.359a77.507 77.507 0 0015.642-17.067h98.321a8.533 8.533 0 000-17.066h-89.813a75.722 75.722 0 003.977-17.067h137.037c4.713 0 8.533-3.82 8.533-8.533s-3.82-8.533-8.533-8.533H238.485a75.668 75.668 0 00-3.977-17.067h38.613c4.713 0 8.533-3.82 8.533-8.533s-3.82-8.533-8.533-8.533H226a77.507 77.507 0 00-15.642-17.067zm-42.667 196.267c0 32.99-26.744 59.733-59.733 59.733s-59.733-26.743-59.733-59.733 26.744-59.733 59.733-59.733c32.972.042 59.691 26.761 59.733 59.733zm-136.03-8.533h-18.074a75.668 75.668 0 00-3.977-17.067h26.027a75.72 75.72 0 00-3.976 17.067zm-18.073 17.066h18.074a75.668 75.668 0 003.977 17.067h-26.027a75.774 75.774 0 003.976-17.067zm-50.697-145.066c0-32.99 26.744-59.733 59.733-59.733s59.733 26.744 59.733 59.733-26.744 59.733-59.733 59.733c-32.972-.042-59.691-26.761-59.733-59.733zm59.733 76.8h37.163a77.507 77.507 0 00-15.642 17.067h-43.042a77.507 77.507 0 00-15.642-17.067zM17.122 435.231c0-24.16 14.554-45.941 36.874-55.186 22.321-9.246 48.013-4.135 65.097 12.949s22.194 42.776 12.949 65.097c-9.246 22.321-31.027 36.874-55.186 36.874-32.973-.043-59.692-26.762-59.734-59.734zm107.904 59.733a77.507 77.507 0 0015.642-17.067h43.042a77.482 77.482 0 0015.642 17.067zm170.667 0a77.507 77.507 0 0015.642-17.067h98.321a8.533 8.533 0 000-17.066h-89.813a75.722 75.722 0 003.977-17.067h137.037a8.533 8.533 0 000-17.066H323.818a75.668 75.668 0 00-3.977-17.067h38.613a8.533 8.533 0 000-17.066h-47.121a77.507 77.507 0 00-15.642-17.067h139.563a59.502 59.502 0 0141.719 17.067h-84.386a8.533 8.533 0 000 17.066h96.555a58.98 58.98 0 010 51.2h-45.355a8.533 8.533 0 000 17.066h33.186a59.504 59.504 0 01-41.719 17.067z"/><g clip-rule="evenodd" fill-rule="evenodd"><path d="M17.122 324.298a8.533 8.533 0 0017.066 0 18.004 18.004 0 016.374-13.534 34.26 34.26 0 000-49.732 18.004 18.004 0 01-6.374-13.534 8.533 8.533 0 00-17.066 0 34.515 34.515 0 0010.692 24.866 17.554 17.554 0 010 27.068 34.515 34.515 0 00-10.692 24.866zM460.855 324.298c0 4.713 3.82 8.533 8.533 8.533s8.533-3.82 8.533-8.533a18.004 18.004 0 016.374-13.534 34.26 34.26 0 000-49.732 18.004 18.004 0 01-6.374-13.534 8.533 8.533 0 00-17.066 0 34.515 34.515 0 0010.692 24.866 17.554 17.554 0 010 27.068 34.52 34.52 0 00-10.692 24.866zM162.188 187.764a8.533 8.533 0 0017.066 0 18.004 18.004 0 016.374-13.534 34.26 34.26 0 000-49.732 18.004 18.004 0 01-6.374-13.534 8.533 8.533 0 00-17.066 0 34.515 34.515 0 0010.692 24.866 17.556 17.556 0 010 27.068 34.523 34.523 0 00-10.692 24.866zM332.855 187.764a8.533 8.533 0 0017.066 0 18.004 18.004 0 016.374-13.534 34.26 34.26 0 000-49.732 18.004 18.004 0 01-6.374-13.534 8.533 8.533 0 00-17.066 0 34.515 34.515 0 0010.692 24.866 17.556 17.556 0 010 27.068 34.52 34.52 0 00-10.692 24.866zM247.522 187.764a8.533 8.533 0 0017.066 0 18.004 18.004 0 016.374-13.534 34.26 34.26 0 000-49.732 18.004 18.004 0 01-6.374-13.534 8.533 8.533 0 00-17.066 0 34.515 34.515 0 0010.692 24.866 17.556 17.556 0 010 27.068 34.515 34.515 0 00-10.692 24.866z"/></g><path d="M510.733 110.529a25.597 25.597 0 00-16.214-32.384l-230.4-76.8a25.538 25.538 0 00-16.213 0l-230.4 76.8C5.585 82.119-1.689 94.157.337 106.558s12.752 21.499 25.318 21.473a25.783 25.783 0 008.141-1.331l222.259-74.086 222.285 74.103a25.6 25.6 0 0032.427-16.214zm-16.214-5.402a8.645 8.645 0 01-10.795 5.402L258.752 35.53a8.533 8.533 0 00-5.393 0L28.36 110.529a8.403 8.403 0 01-6.519-.452 8.534 8.534 0 011.127-15.744l230.4-76.8a8.527 8.527 0 015.385 0l230.4 76.8a8.535 8.535 0 015.401 10.794z"/></svg><svg viewBox="0 0 64 64" id="services-02" xmlns="http://www.w3.org/2000/svg"><path d="M1 25.499h2.001V57.5a1 1 0 001 1h4a1 1 0 001-1v-7.002H55V57.5a1 1 0 001 1h4a1 1 0 001-1V25.499h2a1 1 0 001-1v-5a1 1 0 00-1-1h-6.041C56.442 11.247 50.392 5.5 43.01 5.5c-4.604 0-8.836 2.242-11.46 5.998H3a1 1 0 00-1 1V18.5H1a1 1 0 00-1 1v5a1 1 0 001 .999zM7.001 56.5h-2V25.499h2zm25.002-31.001v13.005a1 1 0 001 1H55v5.994H9.001V25.499zM55 37.504H34.003V25.499H55zM9.001 48.498v-1H55v1zM59 56.5h-2V38.553c.001-.018.01-.031.01-.049V25.499H59zm-15.99-49c6.279 0 11.438 4.85 11.949 10.999h-.999c-.508-5.598-5.223-10-10.951-10h-.002a10.9 10.9 0 00-7.53 3h-1.388A11.938 11.938 0 0143.01 7.5zm3.858 11c-.447-1.721-2-3-3.859-3-1.858 0-3.411 1.28-3.858 3h-1.139v-6.001a.982.982 0 00-.099-.419 8.923 8.923 0 015.094-1.58h.002c4.625 0 8.442 3.507 8.942 8zm-2.136 0h-3.446c.348-.595.985-1 1.723-1s1.376.404 1.723 1zm-30.025-5.001c-.347.595-.985 1-1.723 1H4v-1zM4 16.499h9c.006 0 .01-.003.016-.003a3.997 3.997 0 003.828-2.998h19.168v2H29a1 1 0 100 2h7.012v1H4zM2 20.5h35.012l.005-.001h2.986l.005.001.005-.001h5.993l.005.001.005-.001h6.99l.005.001.005-.001h2.989l.005.001.005-.001H62v3H2z"/><path d="M37.003 29.5h8a1 1 0 100-2h-8a1 1 0 100 2zM37.003 32.5h8a1 1 0 100-2h-8a1 1 0 100 2zM37.003 35.504h8a1 1 0 100-2h-8a1 1 0 100 2zM49.002 35.504h3.001a1 1 0 001-1V28.5a1 1 0 00-1-1h-3.001a1 1 0 00-1 1v6.004a1 1 0 001 1zm1-2v-1.002h1.001v1.002zm1.001-4.004v1.002h-1.001V29.5z"/></svg><svg viewBox="0 0 512 512" id="top" xmlns="http://www.w3.org/2000/svg"><path d="M256 0C114.837 0 0 114.837 0 256s114.837 256 256 256 256-114.837 256-256S397.163 0 256 0zm121.749 313.749A21.275 21.275 0 01362.666 320a21.275 21.275 0 01-15.083-6.251L256 222.165l-91.584 91.584c-8.341 8.341-21.824 8.341-30.165 0-8.341-8.341-8.341-21.824 0-30.165l106.667-106.667c8.341-8.341 21.824-8.341 30.165 0L377.75 283.584c8.341 8.341 8.341 21.824-.001 30.165z"/></svg><svg viewBox="0 0 24 24" id="whours" xmlns="http://www.w3.org/2000/svg"><path fill="#e36243" d="M12 1a11 11 0 1011 11A11.013 11.013 0 0012 1zm3.707 14.707a1 1 0 01-1.414 0l-3-3A1 1 0 0111 12V6a1 1 0 012 0v5.586l2.707 2.707a1 1 0 010 1.414z" data-name="Layer 2"/></svg></svg>