<?xml version="1.0" encoding="iso-8859-1"?>
<!-- Generator: Adobe Illustrator 19.0.0, SVG Export Plug-In . SVG Version: 6.00 Build 0)  -->
<svg version="1.1" id="Capa_1" xmlns="http://www.w3.org/2000/svg" xmlns:xlink="http://www.w3.org/1999/xlink" x="0px" y="0px"
	 viewBox="0 0 461.103 461.103" style="enable-background:new 0 0 461.103 461.103;" xml:space="preserve">
<g>
	<g>
		<path d="M325.949,350.032c-0.519-6.814-5.934-12.229-12.749-12.749c-7.622,0.581-13.329,7.23-12.749,14.851
			c0.519,6.814,5.934,12.229,12.749,12.749C320.822,364.303,326.529,357.653,325.949,350.032z"/>
	</g>
</g>
<g>
	<g>
		<path d="M359.709,338.192c-0.519-6.814-5.934-12.229-12.749-12.749c-7.622,0.581-13.329,7.23-12.749,14.851
			c0.519,6.814,5.934,12.229,12.749,12.749C354.582,352.463,360.289,345.813,359.709,338.192z"/>
	</g>
</g>
<g>
	<g>
		<path d="M461.04,127.683v-0.64c-0.175-0.445-0.389-0.873-0.64-1.28l-0.48-0.64l-0.96-1.04l-0.56-0.48l-1.04-0.48h-0.4
			L283.2,52.083c-1.924-0.778-4.076-0.778-6,0l-173.36,69.84h-0.4l-1.04,0.48l-0.56,0.48l-0.96,1.04l-0.48,0.64
			c-0.251,0.407-0.465,0.835-0.64,1.28v0.64c-0.084,0.664-0.084,1.336,0,2v64H8c-4.418,0-8,3.582-8,8s3.582,8,8,8v1.04h90.8v27.36
			H67.68c-4.418,0-8,3.582-8,8s3.582,8,8,8H98.8v27.36H25.04c-4.418,0-8,3.582-8,8s3.582,8,8,8H98.8v33.44
			c0.016,3.23,1.973,6.133,4.96,7.36l173.44,72c0.867,0.344,1.788,0.533,2.72,0.56c0.932-0.027,1.853-0.216,2.72-0.56l173.44-72
			c2.987-1.227,4.944-4.13,4.96-7.36v-200C461.124,129.019,461.124,128.347,461.04,127.683z M280.16,68.323l65.76,26.32
			l-149.6,63.28l-68.4-28.48L280.16,68.323z M271.92,389.763l-157.12-65.44v-28.16H148c4.418,0,8-3.582,8-8s-3.582-8-8-8h-33.2
			v-27.36h76c4.418,0,8-3.582,8-8s-3.582-8-8-8h-76v-27.28h16c4.418,0,8-3.582,8-8s-3.582-8-8-8h-16v-52.16l61.12,25.28l96,40
			V389.763z M280.24,193.123l-63.2-26.48l149.76-63.52l65.52,26.4l-95.44,40L280.24,193.123z M288.16,389.763v-183.12l45.04-18.72
			l112-46.72l0.4,183.12L288.16,389.763z"/>
	</g>
</g>
<g>
</g>
<g>
</g>
<g>
</g>
<g>
</g>
<g>
</g>
<g>
</g>
<g>
</g>
<g>
</g>
<g>
</g>
<g>
</g>
<g>
</g>
<g>
</g>
<g>
</g>
<g>
</g>
<g>
</g>
</svg>
