<?xml version="1.0" encoding="UTF-8"?>
<svg xmlns="http://www.w3.org/2000/svg" width="512" height="512" viewBox="0 0 128 128"><g><path d="M109,17.25H70.82A1.751,1.751,0,0,0,69.07,19v90a1.751,1.751,0,0,0,1.75,1.75H109a1.75,1.75,0,0,0,1.75-1.75V19A1.75,1.75,0,0,0,109,17.25ZM91.471,32.726q-.327,1.578-.644,3.16c-.419,2.075-.839,4.152-1.3,6.243-2.493,12.044-5.071,24.5-5.215,37.111-.1,9.119,1.057,18.144,2.529,28.01H81.857a43.658,43.658,0,0,0,.084-4.978,212.667,212.667,0,0,0-2.334-26.027,121.2,121.2,0,0,0-4.115-18.577,32.087,32.087,0,0,0-2.922-6.85v-9.1A10.256,10.256,0,0,0,77.2,43a6.565,6.565,0,0,0,2.578-.512c3.18-1.342,4.359-4.677,5.159-8.08L88.152,20.75h5.8ZM72.57,20.75H84.557L81.534,33.606c-.589,2.5-1.373,4.922-3.113,5.656-1.611.681-3.729-.278-5.222-1.2-.214-.132-.423-.27-.629-.413Zm0,86.5V60.074a122.287,122.287,0,0,1,3.578,16.7,209.017,209.017,0,0,1,2.294,25.6,38.354,38.354,0,0,1-.093,4.881ZM87.809,79.28c.14-12.275,2.683-24.56,5.137-36.417.464-2.088.888-4.186,1.312-6.284q.318-1.574.64-3.144L97.524,20.75h9.725V29c-.1.15-.211.3-.307.457-2.5,4.125-3.314,8.975-4.033,13.253L95.6,86.22c-1.024,6.087-2.082,12.381-1.5,18.762.069.754.169,1.511.3,2.268H90.374C88.888,97.33,87.706,88.307,87.809,79.28Zm19.44,27.97H97.943c-.162-.862-.283-1.727-.362-2.586-.541-5.931.479-12,1.465-17.864l7.314-43.508c.267-1.588.538-3.2.889-4.775Z"/><path d="M57.18,17.25H19A1.751,1.751,0,0,0,17.25,19v90A1.751,1.751,0,0,0,19,110.75H57.18A1.751,1.751,0,0,0,58.93,109V19A1.751,1.751,0,0,0,57.18,17.25ZM55.43,70.69c-.21.153-.416.312-.631.458-1.425.975-2.969,1.888-4.463,2.771A52.4,52.4,0,0,0,43.051,78.8c-5.016,4.233-8.65,10.518-10.508,18.176a63.115,63.115,0,0,0-1.521,10.276H26.434c2.491-8.117,4.511-16.515,6.306-24,.74-3.087,1.66-6.927.525-10.6a20.027,20.027,0,0,0-3.014-5.468c-.011-.015-.021-.03-.033-.045-1.282-1.71-2.526-3.521-3.73-5.273q-.925-1.35-1.861-2.69l-3.877-5.52V29.634L25.6,46.88c.861,3.065,3.736,7.843,6.273,12.058,1.163,1.933,2.262,3.759,2.907,5.008,1.051,2.036,3.266,5.541,6.288,6.135a4.455,4.455,0,0,0,.86.086,4.317,4.317,0,0,0,2.838-1.093c1.789-1.526,2.713-4.717,3.608-7.8a23.529,23.529,0,0,1,1.474-4.228c1.658-2.86,3.242-8.031,4.774-13.032.269-.878.54-1.757.811-2.628ZM49.379,20.75c-.5,1.083-.984,2.063-1.461,3.022a32.14,32.14,0,0,0-3.97,12.713l-.058.626c-.727,8.177-2.426,10.672-3.812,11.256C38.1,47.248,32.885,37.82,35.02,28.982l.329-1.34c.516-2.087,1.181-4.781,1.555-6.892Zm-16.037,0c-.371,1.921-.96,4.306-1.391,6.052l-.333,1.358c-2.133,8.827,1.95,18.811,5.588,22.338a4.23,4.23,0,0,0,2.851,1.424,2.67,2.67,0,0,0,.7-.095c5.468-1.5,6.273-10.544,6.616-14.406l.054-.588a28.9,28.9,0,0,1,3.623-11.5C51.712,24,52.451,22.5,53.2,20.75H55.43V31.235a84.1,84.1,0,0,0-4.157,11.751c-1.475,4.812-3,9.788-4.456,12.3A24.578,24.578,0,0,0,45.009,60.3c-.645,2.224-1.527,5.269-2.517,6.114a.807.807,0,0,1-.751.236c-.9-.178-2.446-1.578-3.854-4.306-.7-1.351-1.773-3.138-3.018-5.208-2.3-3.826-5.168-8.589-5.9-11.2L21.888,20.75ZM20.75,107.25V59.742l1.013,1.442c.618.881,1.229,1.77,1.841,2.66,1.218,1.774,2.478,3.608,3.8,5.369a17.007,17.007,0,0,1,2.519,4.47c.852,2.755.089,5.939-.585,8.748-1.859,7.754-3.954,16.5-6.559,24.819ZM35.944,97.8c1.173-4.833,3.749-11.589,9.364-16.326a49.035,49.035,0,0,1,6.809-4.541c1.093-.646,2.212-1.308,3.313-2.008V91.6a23.743,23.743,0,0,0-5.544,2.408,21.937,21.937,0,0,0-9.853,13.241h-5.5A59.146,59.146,0,0,1,35.944,97.8ZM55.43,107.25H43.678A18.4,18.4,0,0,1,51.711,97a19.208,19.208,0,0,1,3.719-1.73Z"/></g></svg>
