<svg id="Capa_1" enable-background="new 0 0 512 512" height="512" viewBox="0 0 512 512" width="512" xmlns="http://www.w3.org/2000/svg"><g id="XMLID_672_"><path id="XMLID_673_" d="m230.699 150.571v-10.04c0-5.522-4.477-10-10-10s-10 4.478-10 10v10.04c0 5.522 4.477 10 10 10s10-4.477 10-10z"/><path id="XMLID_674_" d="m291.3 160.571c5.523 0 10-4.478 10-10v-10.04c0-5.522-4.477-10-10-10s-10 4.478-10 10v10.04c0 5.523 4.477 10 10 10z"/><path id="XMLID_675_" d="m342.198 291.725c-9.516-.882-11.303-.415-32.706-.545l-6.824-32.283c12.417-6.936 23.136-16.541 31.357-28.039h.544c31.508 0 57.142-25.6 57.142-57.066.001-24.419 0-48.747 0-73.424 0-5.522-4.477-10-10-10h-29.981c0-17.501 0-12.772 0-30.163 0-22.124-18.06-40.123-40.257-40.123-11.431 0-21.755 4.78-29.09 12.431-11.311-19.421-32.345-32.513-56.393-32.513h-85.979c-5.523 0-10 4.477-10 10v25.103c0 23.104 12.087 43.427 30.258 55.017v.342c-40.908-.128-27.023-.094-29.981-.094-5.521 0-10 4.479-10 10v60.245c0 5.511 4.458 9.982 9.969 10l30.013.094v4.967c0 36.04 19.956 67.044 49.049 83.282l-6.812 32.225c-22.851.14-21.563-.353-32.632.537-52.133 5.248-100.375 47.889-100.375 99.832v110.45c0 5.522 4.477 10 10 10h353c5.522 0 10-4.478 10-10v-110.45c0-52.12-48.443-94.574-100.302-99.825zm-86.198 94.696-18.992-21.667 18.992-15.514 18.992 15.514zm-48.874-75.241 32.407 25.687-34.384 28.086-20.2-53.772h22.177zm64.543 25.035 33.08-25.035h22.302l-20.2 53.772zm73.953-127.033c7.473-19.763 5.884-35.648 6.108-38.569h19.982v3.179c0 16.599-10.99 30.684-26.09 35.39zm26.09-98.815v40.245h-19.982v-40.245zm-80.497-50.163c0-11.096 9.087-20.123 20.258-20.123 11.17 0 20.257 9.027 20.257 20.123v20.122h-40.515v-15.101zm-141.204-40.204h75.979c24.937 0 45.225 20.288 45.225 45.225v15.102h-75.979c-24.883 0-45.224-20.26-45.224-45.224v-15.103zm-9.723 130.644v-40.245l19.981.062v40.245zm39.981 25.029c0-14.838 0-57.149 0-77.1 4.81 1.134 9.815 1.753 14.966 1.753h136.495v75.347c0 12.703-3.189 24.675-8.793 35.185h-66.937c-5.523 0-10 4.478-10 10s4.477 10 10 10h51.489c-22.773 21.048-55.496 25.785-82.785 13.448-.005-.003-.01-.005-.015-.007-25.947-11.739-44.42-37.798-44.42-68.626zm103.646 91.209 6.375 30.159-35.198 26.637-33.415-26.484 6.399-30.274c17.58 5.314 37.186 5.636 55.839-.038zm-194.415 124.668c0-37.838 34.644-71.312 74.665-78.824l27.16 72.301c2.403 6.398 10.39 8.551 15.688 4.229l14.496-11.841 23.32 26.604-26.437 87.981h-63.019v-50.245c0-5.523-4.477-10-10-10s-10 4.477-10 10v50.245h-45.873zm166.5 44.792 16.724 55.658h-33.448zm166.5 55.658h-45.873v-50.245c0-5.523-4.477-10-10-10s-10 4.477-10 10v50.245h-63.019l-26.437-87.981 23.32-26.604 14.496 11.841c5.298 4.325 13.287 2.163 15.688-4.229l27.16-72.301c40.071 7.525 74.665 41.033 74.665 78.824z"/></g></svg>