<svg id="Capa_1" enable-background="new 0 0 512 512" height="512" viewBox="0 0 512 512" width="512" xmlns="http://www.w3.org/2000/svg"><g><path d="m256 211.554c44.428 0 80.572-36.145 80.572-80.573s-36.145-80.572-80.572-80.572-80.572 36.145-80.572 80.572c0 44.428 36.144 80.573 80.572 80.573zm0-141.145c33.399 0 60.572 27.172 60.572 60.572s-27.173 60.573-60.572 60.573-60.572-27.173-60.572-60.573 27.173-60.572 60.572-60.572z"/><path d="m471.755 240.856h-110.195c24.214-33.212 36.147-66.765 35.501-99.986-.73-37.747-15.58-73.09-41.812-99.521-26.465-26.664-61.712-41.349-99.249-41.349s-72.784 14.685-99.249 41.35c-26.232 26.43-41.082 61.774-41.813 99.519-.646 33.223 11.287 66.776 35.501 99.987h-110.194c-22.191 0-40.245 18.055-40.245 40.246v190.652c0 22.192 18.054 40.246 40.245 40.246h431.51c22.191 0 40.245-18.054 40.245-40.246 0-46.871 0-148.381 0-190.652 0-22.191-18.054-40.246-40.245-40.246zm20.245 40.246v90.408h-40.245v-110.654h20c11.163 0 20.245 9.083 20.245 20.246zm-357.065-139.845c1.316-67.994 54.495-121.257 121.065-121.257s119.749 53.263 121.065 121.258c.661 34.033-14.371 69.08-44.682 104.169 0 .001-.001.001-.001.001-28.896 33.46-63.606 57.171-76.387 65.346-12.77-8.159-47.416-31.807-76.38-65.347-30.309-35.089-45.342-70.137-44.68-104.17zm-94.69 119.599h126.295c37.817 42.884 82.504 69.199 84.421 70.317 3.113 1.816 6.965 1.816 10.078 0 1.917-1.118 46.604-27.433 84.421-70.317h36.091v110.654h-361.551v-90.408c0-11.163 9.082-20.246 20.245-20.246zm-20.245 210.898v-30.04h100.49v50.286h-80.245c-11.163 0-20.245-9.082-20.245-20.246zm120.49 20.246v-60.286c0-5.523-4.478-10-10-10h-110.49v-30.204h371.551c5.522 0 10-4.477 10-10v-120.531h30.204v120.531c0 5.523 4.477 10 10 10h50.245v30.204h-311.306c-5.522 0-10 4.477-10 10v60.286zm331.265 0h-281.061v-50.286h301.306v30.04c0 11.164-9.082 20.246-20.245 20.246z"/></g></svg>