<svg id="Capa_1" enable-background="new 0 0 512.009 512.009" height="512" viewBox="0 0 512.009 512.009" width="512" xmlns="http://www.w3.org/2000/svg"><g id="XMLID_465_"><path id="XMLID_466_" d="m59.741 151.599h179.069c5.523 0 10-4.478 10-10v-79.587c0-5.522-4.477-10-10-10h-179.069c-5.523 0-10 4.478-10 10v79.587c0 5.523 4.477 10 10 10zm10-79.587h159.069v59.587h-159.069z"/><path id="XMLID_469_" d="m59.741 201.34h248.707c5.523 0 10-4.477 10-10 0-5.522-4.477-10-10-10h-248.707c-5.523 0-10 4.478-10 10 0 5.523 4.477 10 10 10z"/><path id="XMLID_470_" d="m59.741 251.083h248.707c5.523 0 10-4.477 10-10 0-5.522-4.477-10-10-10h-248.707c-5.523 0-10 4.478-10 10s4.477 10 10 10z"/><path id="XMLID_471_" d="m59.741 300.823h109.431c5.523 0 10-4.478 10-10s-4.477-10-10-10h-109.431c-5.523 0-10 4.478-10 10s4.477 10 10 10z"/><path id="XMLID_472_" d="m500.33 158.63c-15.533-15.533-40.739-15.608-56.358.01-7.542 7.562-69.107 69.285-75.782 75.978v-152.708c0-2.746-1.152-5.312-2.929-7.071-16.13-16.128-69.221-69.229-69.794-69.78-1.93-1.843-4.408-2.787-6.915-2.787h-278.552c-5.523 0-10 4.477-10 10v487.465c0 5.522 4.477 10 10 10h348.189c5.523 0 10-4.478 10-10v-152.276l132.141-132.481c15.571-15.57 15.573-40.774 0-56.35zm-235.845 264.483-33.496 5.015 5.388-33.037 172.53-172.977 28.065 28.066c-5.428 5.444-161.522 161.94-172.487 172.933zm34.067-386.698 35.495 35.495h-35.495zm49.637 453.322h-328.189v-467.465h258.552v59.638c0 5.522 4.477 10 10 10h59.638v162.76l-75.7 75.895h-212.749c-5.523 0-10 4.478-10 10 0 5.523 4.477 10 10 10h192.8l-29.664 29.741h-163.136c-5.523 0-10 4.478-10 10s4.477 10 10 10h155.521l-4.851 29.741h-150.67c-5.523 0-10 4.478-10 10s4.477 10 10 10c170.958 0 159.321.044 160.376-.079.843-.107 21.768-3.254 50.596-7.565 2.121-.317 4.084-1.309 5.599-2.828l71.876-72.062v122.224zm137.99-288.89-35.081 35.172-28.065-28.065 35.09-35.181c7.752-7.753 20.308-7.757 28.064-.002 7.666 7.666 7.637 20.43-.008 28.076z"/></g></svg>