<svg id="Capa_1" enable-background="new 0 0 512.055 512.055" height="512" viewBox="0 0 512.055 512.055" width="512" xmlns="http://www.w3.org/2000/svg"><g><g id="Page-1_55_"><g id="_x30_56---Drying-Logs" transform="translate(-1 -1)"><path id="Shape_123_" d="m120.522 436.231c0-23.564-19.103-42.667-42.667-42.667s-42.667 19.103-42.667 42.667 19.103 42.667 42.667 42.667c23.553-.029 42.639-19.115 42.667-42.667zm-68.267 0c0-14.138 11.462-25.6 25.6-25.6s25.6 11.462 25.6 25.6-11.462 25.6-25.6 25.6c-6.79 0-13.301-2.697-18.102-7.498s-7.498-11.313-7.498-18.102z"/><path id="Shape_122_" d="m163.188 257.031c-23.564 0-42.667 19.103-42.667 42.667s19.103 42.667 42.667 42.667 42.667-19.103 42.667-42.667c-.028-23.553-19.114-42.639-42.667-42.667zm0 68.267c-14.138 0-25.6-11.462-25.6-25.6s11.462-25.6 25.6-25.6c14.139 0 25.6 11.462 25.6 25.6s-11.461 25.6-25.6 25.6z"/><path id="Shape_121_" d="m248.522 478.898c23.564 0 42.667-19.103 42.667-42.667s-19.103-42.667-42.667-42.667-42.667 19.103-42.667 42.667c.028 23.552 19.114 42.638 42.667 42.667zm0-68.267c14.138 0 25.6 11.462 25.6 25.6s-11.462 25.6-25.6 25.6-25.6-11.462-25.6-25.6c0-14.139 11.461-25.6 25.6-25.6z"/><path id="Shape_120_" d="m436.255 359.431h-37.163c25.363-20.417 35.082-54.615 24.25-85.32s-39.861-51.232-72.42-51.214h-187.734c-32.56-.019-61.587 20.509-72.42 51.214s-1.113 64.903 24.25 85.32h-37.163c-42.415 0-76.8 34.385-76.8 76.8s34.385 76.8 76.8 76.8h358.4c42.415 0 76.8-34.385 76.8-76.8s-34.384-76.8-76.8-76.8zm-85.333-119.467c15.607-.002 30.589 6.127 41.719 17.067h-84.386c-4.713 0-8.533 3.821-8.533 8.533s3.82 8.533 8.533 8.533h96.555c7.794 16.177 7.794 35.023 0 51.2h-45.355c-4.713 0-8.533 3.82-8.533 8.533s3.821 8.533 8.533 8.533h33.186c-11.13 10.94-26.113 17.069-41.719 17.067h-139.563c6.039-4.874 11.312-10.627 15.642-17.067h98.321c4.713 0 8.533-3.82 8.533-8.533s-3.821-8.533-8.533-8.533h-89.813c1.982-5.516 3.316-11.243 3.977-17.067h137.037c4.713 0 8.533-3.82 8.533-8.533s-3.82-8.533-8.533-8.533h-137.038c-.66-5.824-1.995-11.551-3.977-17.067h38.613c4.713 0 8.533-3.82 8.533-8.533s-3.82-8.533-8.533-8.533h-47.121c-4.33-6.44-9.603-12.193-15.642-17.067zm-42.667 196.267c0 32.99-26.744 59.733-59.733 59.733s-59.733-26.743-59.733-59.733 26.744-59.733 59.733-59.733c32.972.042 59.691 26.761 59.733 59.733zm-136.03-8.533h-18.074c-.66-5.824-1.995-11.551-3.977-17.067h26.027c-1.981 5.516-3.316 11.243-3.976 17.067zm-18.073 17.066h18.074c.66 5.824 1.995 11.551 3.977 17.067h-26.027c1.981-5.516 3.315-11.243 3.976-17.067zm-50.697-145.066c0-32.99 26.744-59.733 59.733-59.733s59.733 26.744 59.733 59.733-26.744 59.733-59.733 59.733c-32.972-.042-59.691-26.761-59.733-59.733zm59.733 76.8h37.163c-6.039 4.874-11.312 10.627-15.642 17.067h-43.042c-4.33-6.44-9.603-12.193-15.642-17.067zm-145.066 59.733c0-24.16 14.554-45.941 36.874-55.186 22.321-9.246 48.013-4.135 65.097 12.949s22.194 42.776 12.949 65.097c-9.246 22.321-31.027 36.874-55.186 36.874-32.973-.043-59.692-26.762-59.734-59.734zm107.904 59.733c6.039-4.874 11.312-10.627 15.642-17.067h43.042c4.33 6.44 9.602 12.193 15.642 17.067zm170.667 0c6.039-4.874 11.312-10.627 15.642-17.067h98.321c4.713 0 8.533-3.821 8.533-8.533 0-4.713-3.821-8.533-8.533-8.533h-89.813c1.982-5.516 3.316-11.243 3.977-17.067h137.037c4.713 0 8.533-3.821 8.533-8.533 0-4.713-3.82-8.533-8.533-8.533h-137.039c-.66-5.824-1.995-11.551-3.977-17.067h38.613c4.713 0 8.533-3.821 8.533-8.533s-3.821-8.533-8.533-8.533h-47.121c-4.33-6.44-9.603-12.193-15.642-17.067h139.563c15.607-.002 30.589 6.127 41.719 17.067h-84.386c-4.713 0-8.533 3.82-8.533 8.533s3.821 8.533 8.533 8.533h96.555c7.794 16.177 7.794 35.023 0 51.2h-45.355c-4.713 0-8.533 3.821-8.533 8.533 0 4.713 3.821 8.533 8.533 8.533h33.186c-11.13 10.94-26.113 17.069-41.719 17.067z"/><g clip-rule="evenodd" fill-rule="evenodd"><path id="Path_54_" d="m18.122 325.298c0 4.713 3.821 8.533 8.533 8.533s8.533-3.82 8.533-8.533c.061-5.222 2.387-10.161 6.374-13.534 6.826-6.47 10.692-15.461 10.692-24.866s-3.866-18.396-10.692-24.866c-3.987-3.373-6.313-8.312-6.374-13.534 0-4.713-3.821-8.533-8.533-8.533s-8.533 3.821-8.533 8.533c.03 9.399 3.891 18.379 10.692 24.866 4.037 3.335 6.375 8.297 6.375 13.534 0 5.236-2.338 10.199-6.375 13.534-6.801 6.487-10.662 15.467-10.692 24.866z"/><path id="Path_53_" d="m461.855 325.298c0 4.713 3.82 8.533 8.533 8.533s8.533-3.82 8.533-8.533c.061-5.222 2.387-10.161 6.374-13.534 6.826-6.47 10.692-15.461 10.692-24.866s-3.866-18.396-10.692-24.866c-3.987-3.373-6.313-8.312-6.374-13.534 0-4.713-3.821-8.533-8.533-8.533s-8.533 3.821-8.533 8.533c.03 9.399 3.891 18.379 10.692 24.866 4.037 3.335 6.375 8.297 6.375 13.534 0 5.236-2.338 10.199-6.375 13.534-6.8 6.487-10.662 15.467-10.692 24.866z"/><path id="Path_52_" d="m163.188 188.764c0 4.713 3.821 8.533 8.533 8.533s8.533-3.821 8.533-8.533c.061-5.222 2.387-10.161 6.374-13.534 6.826-6.47 10.692-15.461 10.692-24.866s-3.866-18.396-10.692-24.866c-3.987-3.373-6.313-8.312-6.374-13.534 0-4.713-3.82-8.533-8.533-8.533s-8.533 3.821-8.533 8.533c.03 9.399 3.891 18.379 10.692 24.866 4.037 3.335 6.375 8.298 6.375 13.534s-2.338 10.199-6.375 13.534c-6.8 6.487-10.661 15.467-10.692 24.866z"/><path id="Path_51_" d="m333.855 188.764c0 4.713 3.82 8.533 8.533 8.533s8.533-3.821 8.533-8.533c.061-5.222 2.387-10.161 6.374-13.534 6.826-6.47 10.692-15.461 10.692-24.866s-3.866-18.396-10.692-24.866c-3.987-3.373-6.313-8.312-6.374-13.534 0-4.713-3.82-8.533-8.533-8.533s-8.533 3.821-8.533 8.533c.03 9.399 3.891 18.379 10.692 24.866 4.037 3.335 6.375 8.298 6.375 13.534s-2.338 10.199-6.375 13.534c-6.8 6.487-10.662 15.467-10.692 24.866z"/><path id="Path_50_" d="m248.522 188.764c0 4.713 3.821 8.533 8.533 8.533 4.713 0 8.533-3.821 8.533-8.533.061-5.222 2.387-10.161 6.374-13.534 6.826-6.47 10.692-15.461 10.692-24.866s-3.866-18.396-10.692-24.866c-3.987-3.373-6.313-8.312-6.374-13.534 0-4.713-3.821-8.533-8.533-8.533-4.713 0-8.533 3.821-8.533 8.533.03 9.399 3.891 18.379 10.692 24.866 4.037 3.335 6.375 8.298 6.375 13.534s-2.338 10.199-6.375 13.534c-6.801 6.487-10.662 15.467-10.692 24.866z"/></g><path id="Shape_119_" d="m511.733 111.529c2.147-6.444 1.644-13.478-1.397-19.551-3.041-6.074-8.371-10.69-14.817-12.833l-230.4-76.8c-5.261-1.761-10.952-1.761-16.213 0l-230.4 76.8c-11.921 3.974-19.195 16.012-17.169 28.413s12.752 21.499 25.318 21.473c2.767-.004 5.516-.453 8.141-1.331l222.259-74.086 222.285 74.103c6.45 2.16 13.494 1.664 19.578-1.378s10.707-8.38 12.849-14.836zm-16.214-5.402c-1.537 4.431-6.327 6.827-10.795 5.402l-224.972-74.999c-1.75-.583-3.643-.583-5.393 0l-224.999 74.999c-2.145.735-4.496.572-6.519-.452-3.097-1.541-4.958-4.799-4.711-8.249.247-3.451 2.553-6.411 5.838-7.495l230.4-76.8c.868-.284 1.775-.431 2.688-.435.916-.001 1.827.146 2.697.435l230.4 76.8c2.148.715 3.924 2.254 4.937 4.278 1.013 2.025 1.18 4.369.464 6.516z"/></g></g></g></svg>